<svg xmlns="http://www.w3.org/2000/svg" version="1.1" xmlns:xlink="http://www.w3.org/1999/xlink" xmlns:svgjs="http://svgjs.com/svgjs" width="1440" height="1000" preserveAspectRatio="none" viewBox="0 0 1440 1000">
    <g mask="url(&quot;#SvgjsMask1147&quot;)" fill="none">
        <rect width="1440" height="1000" x="0" y="0" fill="#0e2a47"></rect>
        <use xlink:href="#SvgjsG1149" transform="translate(0, 0)" fill="#0f457b"></use>
        <use xlink:href="#SvgjsG1149" transform="translate(0, 870)" fill="#0f457b"></use>
        <use xlink:href="#SvgjsG1149" transform="translate(870, 0)" fill="#0f457b"></use>
        <use xlink:href="#SvgjsG1149" transform="translate(870, 870)" fill="#0f457b"></use>
    </g>
    <defs>
        <mask id="SvgjsMask1147">
            <rect width="1440" height="1000" fill="#ffffff"></rect>
        </mask>
        <g id="SvgjsG1148">
            <path d="M7.04 0.97l2.18 1.21-5.39 9.73-2.18-1.21zM16.43 4.14L18.62 5.35l-5.46 9.85-2.18-1.21z"></path>
            <path d="M6.08 4.14l0.96-3.17L18.88 4.88l-1.54 2.77z"></path>
            <path d="M-1.64 8.88a3.12 2.61 29 1 0 5.47 3.03 3.12 2.61 29 1 0-5.47-3.03"></path>
            <path d="M7.69 12.17a3.12 2.61 29 1 0 5.47 3.03 3.12 2.61 29 1 0-5.47-3.03"></path>
        </g>
        <g id="SvgjsG1149">
            <use xlink:href="#SvgjsG1148" transform="translate(0, 0) scale(3)" fill="#0f457b"></use>
            <use xlink:href="#SvgjsG1148" transform="translate(0, 87) scale(3)" fill="#0f457b"></use>
            <use xlink:href="#SvgjsG1148" transform="translate(0, 174) scale(3)" fill="#0f457b"></use>
            <use xlink:href="#SvgjsG1148" transform="translate(0, 261) scale(3)" fill="#0f457b"></use>
            <use xlink:href="#SvgjsG1148" transform="translate(0, 348) scale(3)" fill="#0f457b"></use>
            <use xlink:href="#SvgjsG1148" transform="translate(0, 435) scale(3)" fill="#0f457b"></use>
            <use xlink:href="#SvgjsG1148" transform="translate(0, 522) scale(3)" fill="#0f457b"></use>
            <use xlink:href="#SvgjsG1148" transform="translate(0, 609) scale(3)" fill="#0f457b"></use>
            <use xlink:href="#SvgjsG1148" transform="translate(0, 696) scale(3)" fill="#0f457b"></use>
            <use xlink:href="#SvgjsG1148" transform="translate(0, 783) scale(3)" fill="#0f457b"></use>
            <use xlink:href="#SvgjsG1148" transform="translate(87, 0) scale(3)" fill="#0f457b"></use>
            <use xlink:href="#SvgjsG1148" transform="translate(87, 87) scale(3)" fill="#0f457b"></use>
            <use xlink:href="#SvgjsG1148" transform="translate(87, 174) scale(3)" fill="#0f457b"></use>
            <use xlink:href="#SvgjsG1148" transform="translate(87, 261) scale(3)" fill="#0f457b"></use>
            <use xlink:href="#SvgjsG1148" transform="translate(87, 348) scale(3)" fill="#0f457b"></use>
            <use xlink:href="#SvgjsG1148" transform="translate(87, 435) scale(3)" fill="#0f457b"></use>
            <use xlink:href="#SvgjsG1148" transform="translate(87, 522) scale(3)" fill="#0f457b"></use>
            <use xlink:href="#SvgjsG1148" transform="translate(87, 609) scale(3)" fill="#0f457b"></use>
            <use xlink:href="#SvgjsG1148" transform="translate(87, 696) scale(3)" fill="#0f457b"></use>
            <use xlink:href="#SvgjsG1148" transform="translate(87, 783) scale(3)" fill="#0f457b"></use>
            <use xlink:href="#SvgjsG1148" transform="translate(174, 0) scale(3)" fill="#0f457b"></use>
            <use xlink:href="#SvgjsG1148" transform="translate(174, 87) scale(3)" fill="#0f457b"></use>
            <use xlink:href="#SvgjsG1148" transform="translate(174, 174) scale(3)" fill="#0f457b"></use>
            <use xlink:href="#SvgjsG1148" transform="translate(174, 261) scale(3)" fill="#0f457b"></use>
            <use xlink:href="#SvgjsG1148" transform="translate(174, 348) scale(3)" fill="#0f457b"></use>
            <use xlink:href="#SvgjsG1148" transform="translate(174, 435) scale(3)" fill="#0f457b"></use>
            <use xlink:href="#SvgjsG1148" transform="translate(174, 522) scale(3)" fill="#0f457b"></use>
            <use xlink:href="#SvgjsG1148" transform="translate(174, 609) scale(3)" fill="#0f457b"></use>
            <use xlink:href="#SvgjsG1148" transform="translate(174, 696) scale(3)" fill="#0f457b"></use>
            <use xlink:href="#SvgjsG1148" transform="translate(174, 783) scale(3)" fill="#0f457b"></use>
            <use xlink:href="#SvgjsG1148" transform="translate(261, 0) scale(3)" fill="#0f457b"></use>
            <use xlink:href="#SvgjsG1148" transform="translate(261, 87) scale(3)" fill="#0f457b"></use>
            <use xlink:href="#SvgjsG1148" transform="translate(261, 174) scale(3)" fill="#0f457b"></use>
            <use xlink:href="#SvgjsG1148" transform="translate(261, 261) scale(3)" fill="#0f457b"></use>
            <use xlink:href="#SvgjsG1148" transform="translate(261, 348) scale(3)" fill="#0f457b"></use>
            <use xlink:href="#SvgjsG1148" transform="translate(261, 435) scale(3)" fill="#0f457b"></use>
            <use xlink:href="#SvgjsG1148" transform="translate(261, 522) scale(3)" fill="#0f457b"></use>
            <use xlink:href="#SvgjsG1148" transform="translate(261, 609) scale(3)" fill="#0f457b"></use>
            <use xlink:href="#SvgjsG1148" transform="translate(261, 696) scale(3)" fill="#0f457b"></use>
            <use xlink:href="#SvgjsG1148" transform="translate(261, 783) scale(3)" fill="#0f457b"></use>
            <use xlink:href="#SvgjsG1148" transform="translate(348, 0) scale(3)" fill="#0f457b"></use>
            <use xlink:href="#SvgjsG1148" transform="translate(348, 87) scale(3)" fill="#0f457b"></use>
            <use xlink:href="#SvgjsG1148" transform="translate(348, 174) scale(3)" fill="#0f457b"></use>
            <use xlink:href="#SvgjsG1148" transform="translate(348, 261) scale(3)" fill="#0f457b"></use>
            <use xlink:href="#SvgjsG1148" transform="translate(348, 348) scale(3)" fill="#0f457b"></use>
            <use xlink:href="#SvgjsG1148" transform="translate(348, 435) scale(3)" fill="#0f457b"></use>
            <use xlink:href="#SvgjsG1148" transform="translate(348, 522) scale(3)" fill="#0f457b"></use>
            <use xlink:href="#SvgjsG1148" transform="translate(348, 609) scale(3)" fill="#0f457b"></use>
            <use xlink:href="#SvgjsG1148" transform="translate(348, 696) scale(3)" fill="#0f457b"></use>
            <use xlink:href="#SvgjsG1148" transform="translate(348, 783) scale(3)" fill="#0f457b"></use>
            <use xlink:href="#SvgjsG1148" transform="translate(435, 0) scale(3)" fill="#0f457b"></use>
            <use xlink:href="#SvgjsG1148" transform="translate(435, 87) scale(3)" fill="#0f457b"></use>
            <use xlink:href="#SvgjsG1148" transform="translate(435, 174) scale(3)" fill="#0f457b"></use>
            <use xlink:href="#SvgjsG1148" transform="translate(435, 261) scale(3)" fill="#0f457b"></use>
            <use xlink:href="#SvgjsG1148" transform="translate(435, 348) scale(3)" fill="#0f457b"></use>
            <use xlink:href="#SvgjsG1148" transform="translate(435, 435) scale(3)" fill="#0f457b"></use>
            <use xlink:href="#SvgjsG1148" transform="translate(435, 522) scale(3)" fill="#0f457b"></use>
            <use xlink:href="#SvgjsG1148" transform="translate(435, 609) scale(3)" fill="#0f457b"></use>
            <use xlink:href="#SvgjsG1148" transform="translate(435, 696) scale(3)" fill="#0f457b"></use>
            <use xlink:href="#SvgjsG1148" transform="translate(435, 783) scale(3)" fill="#0f457b"></use>
            <use xlink:href="#SvgjsG1148" transform="translate(522, 0) scale(3)" fill="#0f457b"></use>
            <use xlink:href="#SvgjsG1148" transform="translate(522, 87) scale(3)" fill="#0f457b"></use>
            <use xlink:href="#SvgjsG1148" transform="translate(522, 174) scale(3)" fill="#0f457b"></use>
            <use xlink:href="#SvgjsG1148" transform="translate(522, 261) scale(3)" fill="#0f457b"></use>
            <use xlink:href="#SvgjsG1148" transform="translate(522, 348) scale(3)" fill="#0f457b"></use>
            <use xlink:href="#SvgjsG1148" transform="translate(522, 435) scale(3)" fill="#0f457b"></use>
            <use xlink:href="#SvgjsG1148" transform="translate(522, 522) scale(3)" fill="#0f457b"></use>
            <use xlink:href="#SvgjsG1148" transform="translate(522, 609) scale(3)" fill="#0f457b"></use>
            <use xlink:href="#SvgjsG1148" transform="translate(522, 696) scale(3)" fill="#0f457b"></use>
            <use xlink:href="#SvgjsG1148" transform="translate(522, 783) scale(3)" fill="#0f457b"></use>
            <use xlink:href="#SvgjsG1148" transform="translate(609, 0) scale(3)" fill="#0f457b"></use>
            <use xlink:href="#SvgjsG1148" transform="translate(609, 87) scale(3)" fill="#0f457b"></use>
            <use xlink:href="#SvgjsG1148" transform="translate(609, 174) scale(3)" fill="#0f457b"></use>
            <use xlink:href="#SvgjsG1148" transform="translate(609, 261) scale(3)" fill="#0f457b"></use>
            <use xlink:href="#SvgjsG1148" transform="translate(609, 348) scale(3)" fill="#0f457b"></use>
            <use xlink:href="#SvgjsG1148" transform="translate(609, 435) scale(3)" fill="#0f457b"></use>
            <use xlink:href="#SvgjsG1148" transform="translate(609, 522) scale(3)" fill="#0f457b"></use>
            <use xlink:href="#SvgjsG1148" transform="translate(609, 609) scale(3)" fill="#0f457b"></use>
            <use xlink:href="#SvgjsG1148" transform="translate(609, 696) scale(3)" fill="#0f457b"></use>
            <use xlink:href="#SvgjsG1148" transform="translate(609, 783) scale(3)" fill="#0f457b"></use>
            <use xlink:href="#SvgjsG1148" transform="translate(696, 0) scale(3)" fill="#0f457b"></use>
            <use xlink:href="#SvgjsG1148" transform="translate(696, 87) scale(3)" fill="#0f457b"></use>
            <use xlink:href="#SvgjsG1148" transform="translate(696, 174) scale(3)" fill="#0f457b"></use>
            <use xlink:href="#SvgjsG1148" transform="translate(696, 261) scale(3)" fill="#0f457b"></use>
            <use xlink:href="#SvgjsG1148" transform="translate(696, 348) scale(3)" fill="#0f457b"></use>
            <use xlink:href="#SvgjsG1148" transform="translate(696, 435) scale(3)" fill="#0f457b"></use>
            <use xlink:href="#SvgjsG1148" transform="translate(696, 522) scale(3)" fill="#0f457b"></use>
            <use xlink:href="#SvgjsG1148" transform="translate(696, 609) scale(3)" fill="#0f457b"></use>
            <use xlink:href="#SvgjsG1148" transform="translate(696, 696) scale(3)" fill="#0f457b"></use>
            <use xlink:href="#SvgjsG1148" transform="translate(696, 783) scale(3)" fill="#0f457b"></use>
            <use xlink:href="#SvgjsG1148" transform="translate(783, 0) scale(3)" fill="#0f457b"></use>
            <use xlink:href="#SvgjsG1148" transform="translate(783, 87) scale(3)" fill="#0f457b"></use>
            <use xlink:href="#SvgjsG1148" transform="translate(783, 174) scale(3)" fill="#0f457b"></use>
            <use xlink:href="#SvgjsG1148" transform="translate(783, 261) scale(3)" fill="#0f457b"></use>
            <use xlink:href="#SvgjsG1148" transform="translate(783, 348) scale(3)" fill="#0f457b"></use>
            <use xlink:href="#SvgjsG1148" transform="translate(783, 435) scale(3)" fill="#0f457b"></use>
            <use xlink:href="#SvgjsG1148" transform="translate(783, 522) scale(3)" fill="#0f457b"></use>
            <use xlink:href="#SvgjsG1148" transform="translate(783, 609) scale(3)" fill="#0f457b"></use>
            <use xlink:href="#SvgjsG1148" transform="translate(783, 696) scale(3)" fill="#0f457b"></use>
            <use xlink:href="#SvgjsG1148" transform="translate(783, 783) scale(3)" fill="#0f457b"></use>
        </g>
    </defs>
</svg>